<svg width="512" height="512" viewBox="0 0 512 512" fill="none" xmlns="http://www.w3.org/2000/svg">
<mask id="path-1-outside-1_60_144" maskUnits="userSpaceOnUse" x="7.25" y="108.25" width="498" height="288" fill="black">
<rect fill="white" x="7.25" y="108.25" width="498" height="288"/>
<path d="M256 116.25C388.963 116.25 496.75 224.037 496.75 357C496.75 367.504 496.076 377.851 494.771 388H17.2285C15.9238 377.851 15.25 367.504 15.25 357C15.25 224.037 123.037 116.25 256 116.25Z"/>
</mask>
<path d="M256 116.25C388.963 116.25 496.75 224.037 496.75 357C496.75 367.504 496.076 377.851 494.771 388H17.2285C15.9238 377.851 15.25 367.504 15.25 357C15.25 224.037 123.037 116.25 256 116.25Z" fill="url(#paint0_linear_60_144)"/>
<path d="M494.771 388V396H501.809L502.706 389.02L494.771 388ZM17.2285 388L9.29381 389.02L10.1911 396H17.2285V388ZM256 116.25V124.25C384.544 124.25 488.75 228.456 488.75 357H496.75H504.75C504.75 219.619 393.381 108.25 256 108.25V116.25ZM496.75 357H488.75C488.75 367.162 488.098 377.168 486.837 386.98L494.771 388L502.706 389.02C504.054 378.534 504.75 367.847 504.75 357H496.75ZM494.771 388V380H17.2285V388V396H494.771V388ZM17.2285 388L25.1632 386.98C23.9018 377.168 23.25 367.162 23.25 357H15.25H7.25C7.25 367.847 7.94583 378.534 9.29381 389.02L17.2285 388ZM15.25 357H23.25C23.25 228.456 127.456 124.25 256 124.25V116.25V108.25C118.619 108.25 7.25 219.619 7.25 357H15.25Z" fill="#1C3935" mask="url(#path-1-outside-1_60_144)"/>
<mask id="path-3-outside-2_60_144" maskUnits="userSpaceOnUse" x="63.4199" y="164.42" width="386" height="232" fill="black">
<rect fill="white" x="63.4199" y="164.42" width="386" height="232"/>
<path d="M256 172.421C357.94 172.421 440.579 255.06 440.579 357.001C440.579 367.565 439.689 377.921 437.984 388H74.0146C72.3102 377.921 71.42 367.565 71.4199 357.001C71.4199 255.06 154.06 172.421 256 172.421Z"/>
</mask>
<path d="M256 172.421C357.94 172.421 440.579 255.06 440.579 357.001C440.579 367.565 439.689 377.921 437.984 388H74.0146C72.3102 377.921 71.42 367.565 71.4199 357.001C71.4199 255.06 154.06 172.421 256 172.421Z" fill="url(#paint1_linear_60_144)"/>
<path d="M256 172.421L256 164.421H256L256 172.421ZM440.579 357.001L448.579 357.001V357.001H440.579ZM437.984 388V396H444.745L445.872 389.334L437.984 388ZM74.0146 388L66.1266 389.334L67.254 396H74.0146V388ZM71.4199 357.001H63.4199V357.001L71.4199 357.001ZM256 172.421L256 180.421C353.522 180.421 432.579 259.479 432.579 357.001H440.579H448.579C448.579 250.642 362.359 164.421 256 164.421L256 172.421ZM440.579 357.001L432.579 357.001C432.579 367.115 431.727 377.025 430.096 386.666L437.984 388L445.872 389.334C447.651 378.818 448.579 368.015 448.579 357.001L440.579 357.001ZM437.984 388V380H74.0146V388V396H437.984V388ZM74.0146 388L81.9026 386.666C80.2722 377.025 79.42 367.115 79.4199 357.001L71.4199 357.001L63.4199 357.001C63.42 368.015 64.3482 378.818 66.1266 389.334L74.0146 388ZM71.4199 357.001H79.4199C79.4199 259.479 158.478 180.421 256 180.421L256 172.421L256 164.421C149.641 164.421 63.4199 250.642 63.4199 357.001H71.4199Z" fill="#1C3935" mask="url(#path-3-outside-2_60_144)"/>
<mask id="path-5-outside-3_60_144" maskUnits="userSpaceOnUse" x="119.591" y="219.591" width="273" height="177" fill="black">
<rect fill="white" x="119.591" y="219.591" width="273" height="177"/>
<path d="M256 228.59C326.918 228.59 384.41 286.082 384.41 357C384.41 367.689 383.102 378.072 380.641 388H131.36C128.899 378.072 127.591 367.689 127.591 357C127.591 286.082 185.082 228.59 256 228.59Z"/>
</mask>
<path d="M256 228.59C326.918 228.59 384.41 286.082 384.41 357C384.41 367.689 383.102 378.072 380.641 388H131.36C128.899 378.072 127.591 367.689 127.591 357C127.591 286.082 185.082 228.59 256 228.59Z" fill="url(#paint2_linear_60_144)"/>
<path d="M256 228.59L256 220.59H256L256 228.59ZM384.41 357L392.41 357V357L384.41 357ZM380.641 388V396H386.9L388.406 389.925L380.641 388ZM131.36 388L123.595 389.925L125.101 396H131.36V388ZM127.591 357L119.591 357V357L127.591 357ZM256 228.59L256 236.59C322.5 236.59 376.41 290.5 376.41 357L384.41 357L392.41 357C392.41 281.663 331.337 220.59 256 220.59L256 228.59ZM384.41 357L376.41 357C376.41 367.034 375.182 376.771 372.876 386.075L380.641 388L388.406 389.925C391.021 379.373 392.41 368.344 392.41 357L384.41 357ZM380.641 388V380H131.36V388V396H380.641V388ZM131.36 388L139.125 386.075C136.819 376.771 135.591 367.034 135.591 357L127.591 357L119.591 357C119.591 368.344 120.98 379.373 123.595 389.925L131.36 388ZM127.591 357L135.591 357C135.591 290.5 189.5 236.59 256 236.59L256 228.59L256 220.59C180.663 220.59 119.591 281.663 119.591 357L127.591 357Z" fill="#1C3935" mask="url(#path-5-outside-3_60_144)"/>
<defs>
<linearGradient id="paint0_linear_60_144" x1="256" y1="117" x2="256" y2="431.667" gradientUnits="userSpaceOnUse">
<stop offset="0.110577" stop-color="#F66736"/>
<stop offset="0.600962" stop-color="#D83847"/>
</linearGradient>
<linearGradient id="paint1_linear_60_144" x1="256" y1="173.169" x2="256" y2="430.532" gradientUnits="userSpaceOnUse">
<stop offset="0.259615" stop-color="#EF593A"/>
<stop offset="0.567308" stop-color="#DA3646"/>
</linearGradient>
<linearGradient id="paint2_linear_60_144" x1="256" y1="229.34" x2="256" y2="433.596" gradientUnits="userSpaceOnUse">
<stop offset="0.274038" stop-color="#F45939"/>
<stop offset="0.5" stop-color="#EF4040"/>
</linearGradient>
</defs>
</svg>
