<svg width="498" height="288" viewBox="0 0 498 288" fill="none" xmlns="http://www.w3.org/2000/svg">
<mask id="path-1-outside-1_60_157" maskUnits="userSpaceOnUse" x="0" y="0" width="498" height="288" fill="black">
<rect fill="white" width="498" height="288"/>
<path d="M248.75 8C381.713 8 489.5 115.787 489.5 248.75C489.5 259.254 488.826 269.601 487.521 279.75H9.97852C8.67383 269.601 8 259.254 8 248.75C8 115.787 115.787 8 248.75 8Z"/>
</mask>
<path d="M248.75 8C381.713 8 489.5 115.787 489.5 248.75C489.5 259.254 488.826 269.601 487.521 279.75H9.97852C8.67383 269.601 8 259.254 8 248.75C8 115.787 115.787 8 248.75 8Z" fill="url(#paint0_linear_60_157)"/>
<path d="M487.521 279.75V287.75H494.559L495.456 280.77L487.521 279.75ZM9.97852 279.75L2.04381 280.77L2.94109 287.75H9.97852V279.75ZM248.75 8V16C377.294 16 481.5 120.206 481.5 248.75H489.5H497.5C497.5 111.369 386.131 0 248.75 0V8ZM489.5 248.75H481.5C481.5 258.912 480.848 268.918 479.587 278.73L487.521 279.75L495.456 280.77C496.804 270.284 497.5 259.597 497.5 248.75H489.5ZM487.521 279.75V271.75H9.97852V279.75V287.75H487.521V279.75ZM9.97852 279.75L17.9132 278.73C16.6518 268.918 16 258.912 16 248.75H8H0C0 259.597 0.695829 270.284 2.04381 280.77L9.97852 279.75ZM8 248.75H16C16 120.206 120.206 16 248.75 16V8V0C111.369 0 0 111.369 0 248.75H8Z" fill="#1C3935" mask="url(#path-1-outside-1_60_157)"/>
<mask id="path-3-outside-2_60_157" maskUnits="userSpaceOnUse" x="56.1699" y="56.1699" width="386" height="232" fill="black">
<rect fill="white" x="56.1699" y="56.1699" width="386" height="232"/>
<path d="M248.75 64.1709C350.69 64.1711 433.329 146.81 433.329 248.751C433.329 259.315 432.439 269.671 430.734 279.75H66.7646C65.0602 269.671 64.17 259.315 64.1699 248.751C64.1699 146.81 146.81 64.1711 248.75 64.1709Z"/>
</mask>
<path d="M248.75 64.1709C350.69 64.1711 433.329 146.81 433.329 248.751C433.329 259.315 432.439 269.671 430.734 279.75H66.7646C65.0602 269.671 64.17 259.315 64.1699 248.751C64.1699 146.81 146.81 64.1711 248.75 64.1709Z" fill="url(#paint1_linear_60_157)"/>
<path d="M248.75 64.1709L248.75 56.1709H248.75L248.75 64.1709ZM433.329 248.751L441.329 248.751V248.751H433.329ZM430.734 279.75V287.75H437.495L438.622 281.084L430.734 279.75ZM66.7646 279.75L58.8766 281.084L60.004 287.75H66.7646V279.75ZM64.1699 248.751H56.1699V248.751L64.1699 248.751ZM248.75 64.1709L248.75 72.1709C346.272 72.171 425.329 151.229 425.329 248.751H433.329H441.329C441.329 142.392 355.109 56.1711 248.75 56.1709L248.75 64.1709ZM433.329 248.751L425.329 248.751C425.329 258.865 424.477 268.775 422.846 278.416L430.734 279.75L438.622 281.084C440.401 270.568 441.329 259.765 441.329 248.751L433.329 248.751ZM430.734 279.75V271.75H66.7646V279.75V287.75H430.734V279.75ZM66.7646 279.75L74.6526 278.416C73.0222 268.775 72.17 258.865 72.1699 248.751L64.1699 248.751L56.1699 248.751C56.17 259.765 57.0982 270.568 58.8766 281.084L66.7646 279.75ZM64.1699 248.751H72.1699C72.1699 151.229 151.228 72.1711 248.75 72.1709L248.75 64.1709L248.75 56.1709C142.391 56.1711 56.1699 142.392 56.1699 248.751H64.1699Z" fill="#1C3935" mask="url(#path-3-outside-2_60_157)"/>
<mask id="path-5-outside-3_60_157" maskUnits="userSpaceOnUse" x="112.341" y="111.341" width="273" height="177" fill="black">
<rect fill="white" x="112.341" y="111.341" width="273" height="177"/>
<path d="M248.75 120.34C319.668 120.34 377.16 177.832 377.16 248.75C377.16 259.439 375.852 269.822 373.391 279.75H124.11C121.649 269.822 120.341 259.439 120.341 248.75C120.341 177.832 177.832 120.34 248.75 120.34Z"/>
</mask>
<path d="M248.75 120.34C319.668 120.34 377.16 177.832 377.16 248.75C377.16 259.439 375.852 269.822 373.391 279.75H124.11C121.649 269.822 120.341 259.439 120.341 248.75C120.341 177.832 177.832 120.34 248.75 120.34Z" fill="url(#paint2_linear_60_157)"/>
<path d="M248.75 120.34L248.75 112.34H248.75L248.75 120.34ZM377.16 248.75L385.16 248.75V248.75L377.16 248.75ZM373.391 279.75V287.75H379.65L381.156 281.675L373.391 279.75ZM124.11 279.75L116.345 281.675L117.851 287.75H124.11V279.75ZM120.341 248.75L112.341 248.75V248.75L120.341 248.75ZM248.75 120.34L248.75 128.34C315.25 128.34 369.16 182.25 369.16 248.75L377.16 248.75L385.16 248.75C385.16 173.413 324.087 112.34 248.75 112.34L248.75 120.34ZM377.16 248.75L369.16 248.75C369.16 258.784 367.932 268.521 365.626 277.825L373.391 279.75L381.156 281.675C383.771 271.123 385.16 260.094 385.16 248.75L377.16 248.75ZM373.391 279.75V271.75H124.11V279.75V287.75H373.391V279.75ZM124.11 279.75L131.875 277.825C129.569 268.521 128.341 258.784 128.341 248.75L120.341 248.75L112.341 248.75C112.341 260.094 113.73 271.123 116.345 281.675L124.11 279.75ZM120.341 248.75L128.341 248.75C128.341 182.25 182.25 128.34 248.75 128.34L248.75 120.34L248.75 112.34C173.413 112.34 112.341 173.413 112.341 248.75L120.341 248.75Z" fill="#1C3935" mask="url(#path-5-outside-3_60_157)"/>
<defs>
<linearGradient id="paint0_linear_60_157" x1="248.75" y1="8.75" x2="248.75" y2="323.417" gradientUnits="userSpaceOnUse">
<stop offset="0.110577" stop-color="#F66736"/>
<stop offset="0.600962" stop-color="#D83847"/>
</linearGradient>
<linearGradient id="paint1_linear_60_157" x1="248.75" y1="64.9194" x2="248.75" y2="322.282" gradientUnits="userSpaceOnUse">
<stop offset="0.259615" stop-color="#EF593A"/>
<stop offset="0.567308" stop-color="#DA3646"/>
</linearGradient>
<linearGradient id="paint2_linear_60_157" x1="248.75" y1="121.09" x2="248.75" y2="325.346" gradientUnits="userSpaceOnUse">
<stop offset="0.274038" stop-color="#F45939"/>
<stop offset="0.5" stop-color="#EF4040"/>
</linearGradient>
</defs>
</svg>
