<svg width="439" height="237" viewBox="0 0 439 237" fill="none" xmlns="http://www.w3.org/2000/svg">
<path d="M219.297 60.9932C282.258 60.9932 333.297 112.033 333.297 174.993C333.297 177.497 333.215 179.982 333.056 182.445C304.332 175.329 269.3 169.879 227.312 168.671C180.481 167.323 139.431 173.799 105.574 182.985C105.392 180.345 105.297 177.68 105.297 174.993C105.297 112.033 156.337 60.9932 219.297 60.9932Z" fill="url(#paint0_linear_72_187)"/>
<path d="M381.556 109.416L352.938 121.27C352.564 120.341 352.182 119.417 351.789 118.498L380.408 106.645L381.556 109.416ZM86.8058 118.492C86.4133 119.411 86.0303 120.336 85.6564 121.265L57.051 109.416L58.1994 106.644L86.8058 118.492ZM344.108 52.3174L322.181 74.2432C321.481 73.5288 320.774 72.8218 320.06 72.1221L341.987 50.1963L344.108 52.3174ZM118.541 72.1152C117.827 72.8151 117.119 73.5218 116.419 74.2363L94.5002 52.3164L96.6213 50.1953L118.541 72.1152ZM287.659 13.8955L275.808 42.5068C274.889 42.1144 273.965 41.7312 273.036 41.3574L284.888 12.7471L287.659 13.8955ZM165.569 41.3525C164.64 41.7263 163.716 42.1095 162.797 42.502L150.948 13.8945L153.72 12.7471L165.569 41.3525ZM220.804 31.002C220.302 30.9968 219.8 30.9932 219.297 30.9932C218.799 30.9932 218.301 30.9969 217.804 31.002V0H220.804V31.002Z" fill="#EE7E22"/>
<path d="M0.297058 236.17C0.297058 236.17 88.2971 171.17 227.297 175.17C365.717 179.154 428.422 229.25 438.671 233.124C438.713 233.14 438.755 233.155 438.797 233.17C438.756 233.156 438.714 233.14 438.671 233.124C265.734 169.699 135.797 229.67 135.797 229.67C135.797 229.67 165.797 212.17 206.297 195.67C105.797 192.67 0.297058 236.17 0.297058 236.17Z" fill="#34746E"/>
<path d="M0.297058 236.17C0.297058 236.17 88.2971 171.17 227.297 175.17C366.297 179.17 428.945 229.67 438.797 233.17C265.797 169.67 135.797 229.67 135.797 229.67C135.797 229.67 165.797 212.17 206.297 195.67C105.797 192.67 0.297058 236.17 0.297058 236.17Z" stroke="url(#paint1_linear_72_187)"/>
<defs>
<linearGradient id="paint0_linear_72_187" x1="219.297" y1="60.9932" x2="219.297" y2="288.993" gradientUnits="userSpaceOnUse">
<stop stop-color="#FB9038"/>
<stop offset="0.329249" stop-color="#E35626"/>
</linearGradient>
<linearGradient id="paint1_linear_72_187" x1="215.797" y1="159.17" x2="215.797" y2="241.17" gradientUnits="userSpaceOnUse">
<stop offset="0.00797274" stop-color="#EE7B22"/>
<stop offset="0.454896" stop-color="#34746E"/>
</linearGradient>
</defs>
</svg>
